<svg xmlns="http://www.w3.org/2000/svg" width="32" height="32" viewBox="0 0 32 32" fill="currentColor">
<path d="M19.2722 16.1472L28.6472 25.5222C29.0616 25.9366 29.2944 26.4986 29.2944 27.0847C29.2944 27.6708 29.0616 28.2328 28.6472 28.6472C28.2328 29.0616 27.6708 29.2944 27.0847 29.2944C26.4986 29.2944 25.9366 29.0616 25.5222 28.6472L16.1472 19.2722L6.77221 28.6472C6.35781 29.0616 5.79576 29.2944 5.20971 29.2944C4.62366 29.2944 4.06161 29.0616 3.64721 28.6472C3.23281 28.2328 3 27.6708 3 27.0847C3 26.4986 3.23281 25.9366 3.64721 25.5222L13.0222 16.1472L3.64721 6.77221C3.23281 6.35781 3 5.79576 3 5.20971C3 4.62366 3.23281 4.06161 3.64721 3.64721C4.06161 3.23281 4.62366 3 5.20971 3C5.79576 3 6.35781 3.23281 6.77221 3.64721L16.1472 13.0222L25.5222 3.64721C25.9366 3.23281 26.4986 3 27.0847 3C27.6708 3 28.2328 3.23281 28.6472 3.64721C29.0616 4.06161 29.2944 4.62366 29.2944 5.20971C29.2944 5.79576 29.0616 6.35781 28.6472 6.77221L19.2722 16.1472Z"/>
</svg>
